<svg width="48" height="48" viewBox="0 0 48 48" fill="none" xmlns="http://www.w3.org/2000/svg">
<rect width="48" height="48" rx="24" fill="#252525"/>
<g clip-path="url(#clip0_202_2648)">
<path d="M20.0003 16.0238C20.0003 16.7705 20.6003 17.3571 21.3336 17.3571H28.787L14.267 31.8771C13.747 32.3971 13.747 33.2371 14.267 33.7571C14.787 34.2771 15.627 34.2771 16.147 33.7571L30.667 19.2371V26.6905C30.667 27.4238 31.267 28.0238 32.0003 28.0238C32.7336 28.0238 33.3336 27.4238 33.3336 26.6905V16.0238C33.3336 15.2905 32.7336 14.6905 32.0003 14.6905H21.3336C20.6003 14.6905 20.0003 15.2905 20.0003 16.0238Z" fill="white"/>
</g>
<defs>
<clipPath id="clip0_202_2648">
<rect width="32" height="32" fill="white" transform="translate(8 8.0238)"/>
</clipPath>
</defs>
</svg>
