<svg width="52" height="52" viewBox="0 0 52 52" fill="none" xmlns="http://www.w3.org/2000/svg">
<rect width="52" height="52" rx="26" fill="#4F4CE5"/>
<g clip-path="url(#clip0_134_257)">
<path d="M37.6667 20.1666H29.5V17.8333H37.6667V20.1666ZM39.6803 31.8333C39.1647 33.3464 37.3132 35.3333 33.7292 35.3333C30.1428 35.3333 27.2378 33.3161 27.2378 28.7124C27.2378 24.1508 29.9503 21.8058 33.6148 21.8058C37.2105 21.8058 39.4062 23.8848 39.8857 26.9694C39.9767 27.5598 40.0128 28.3554 39.9965 29.4661H30.6317C30.7833 33.2123 34.6952 33.3301 35.9843 31.8333H39.6803ZM30.7133 27.1666H36.5058C36.3833 25.3618 35.1805 24.5778 33.616 24.5778C31.9057 24.5778 30.9595 25.4738 30.7133 27.1666ZM19.5437 35.3193H12V17.8578H20.1118C26.5005 17.9523 26.6218 24.2091 23.2852 25.9148C27.323 27.3848 27.4583 35.3193 19.5437 35.3193ZM15.5 24.8333H19.6813C22.6073 24.8333 23.0717 21.3333 19.3173 21.3333H15.5V24.8333ZM19.4562 28.3333H15.5V31.8519H19.3978C22.962 31.8519 22.7438 28.3333 19.4562 28.3333Z" fill="white"/>
</g>
<defs>
<clipPath id="clip0_134_257">
<rect width="28" height="28" fill="white" transform="translate(12 12)"/>
</clipPath>
</defs>
</svg>
