<svg width="68" height="68" viewBox="0 0 68 68" fill="none" xmlns="http://www.w3.org/2000/svg">
<path d="M48.7848 56.3476C49.1081 56.1083 49.2965 55.7446 49.2965 55.3599V15.5559C49.2965 15.0934 49.025 14.6681 48.5888 14.4473L29.9672 5.02153C29.5216 4.79595 28.978 4.82134 28.5588 5.08731L28.0812 5.39034C27.6375 5.67184 27.3529 5.95486 27.1766 6.25936L27.3619 6.35563L45.7645 15.917C46.1933 16.1398 46.4591 16.5614 46.4591 17.0188V57.5651C46.4591 57.662 46.4137 57.8569 46.2319 57.8611C46.3082 57.8677 46.3846 57.8699 46.4591 57.8663C46.6672 57.8563 46.8609 57.8013 46.9976 57.6707L48.7848 56.3476Z" fill="#4F4CE5"/>
<path fill-rule="evenodd" clip-rule="evenodd" d="M27.6155 48.3946C27.1867 48.1718 26.9209 47.7502 26.9209 47.2927V7.35981C26.9209 7.00698 26.9678 6.69243 27.1037 6.39955C27.1049 6.39692 27.0995 6.40857 27.1007 6.40595C27.1458 6.31885 27.2693 6.30749 27.3619 6.35563L45.7645 15.917C46.1933 16.1398 46.4591 16.5614 46.4591 17.0188V57.5651C46.4591 57.662 46.4137 57.8569 46.2319 57.8611C45.9387 57.8357 45.6473 57.7457 45.4692 57.6707L27.6155 48.3946Z" fill="#B3F138"/>
<path d="M27.3619 6.35563L27.1766 6.25936C27.1513 6.303 27.1217 6.36136 27.1007 6.40595C27.1458 6.31885 27.2693 6.30749 27.3619 6.35563Z" fill="#4F4CE5"/>
<path d="M33.9072 13.3074C33.9072 12.7714 34.4771 12.4278 34.9511 12.6778L39.3169 14.9807C39.5505 15.1039 39.6966 15.3462 39.6966 15.6103C39.6966 16.1462 39.1268 16.4899 38.6527 16.2398L34.2869 13.9369C34.0534 13.8138 33.9072 13.5714 33.9072 13.3074Z" fill="#4F4CE5"/>
<path d="M42.0768 61.1479C42.4001 60.9086 42.5885 60.5449 42.5885 60.1602V20.3562C42.5885 19.8937 42.3169 19.4684 41.8808 19.2476L23.2592 9.82183C22.8136 9.59625 22.27 9.62164 21.8508 9.88761L21.3732 10.1906C20.9295 10.4721 20.6449 10.7552 20.4686 11.0597L20.6539 11.1559L39.0565 20.7173C39.4853 20.9401 39.7511 21.3617 39.7511 21.8191V62.3654C39.7511 62.4623 39.7057 62.6572 39.5239 62.6614C39.6002 62.668 39.6765 62.6702 39.7511 62.6666C39.9592 62.6566 40.1529 62.6016 40.2896 62.471L42.0768 61.1479Z" fill="#4F4CE5"/>
<path fill-rule="evenodd" clip-rule="evenodd" d="M20.9075 53.1949C20.4787 52.9721 20.2129 52.5505 20.2129 52.093V12.1601C20.2129 11.8073 20.2598 11.4927 20.3957 11.1999C20.3969 11.1972 20.3915 11.2089 20.3927 11.2062C20.4378 11.1191 20.5612 11.1078 20.6539 11.1559L39.0565 20.7173C39.4853 20.9401 39.7511 21.3617 39.7511 21.8191V62.3654C39.7511 62.4623 39.7057 62.6572 39.5239 62.6614C39.2307 62.636 38.9392 62.546 38.7612 62.471L20.9075 53.1949Z" fill="#B3F138"/>
<path d="M20.6539 11.1559L20.4686 11.0597C20.4433 11.1033 20.4137 11.1617 20.3927 11.2062C20.4378 11.1191 20.5612 11.1078 20.6539 11.1559Z" fill="#4F4CE5"/>
<path d="M27.1992 18.1076C27.1992 17.5717 27.7691 17.228 28.2431 17.478L32.6089 19.7809C32.8425 19.9041 32.9886 20.1465 32.9886 20.4105C32.9886 20.9464 32.4188 21.2901 31.9447 21.0401L27.5789 18.7372C27.3454 18.614 27.1992 18.3717 27.1992 18.1076Z" fill="#4F4CE5"/>
</svg>
