<svg width="33" height="32" viewBox="0 0 33 32" fill="none" xmlns="http://www.w3.org/2000/svg">
<rect x="0.5" width="32" height="32" rx="16" fill="#B3F138"/>
<path d="M18.6935 11.6214C18.4295 11.8854 18.4342 12.305 18.6935 12.5642L21.3287 15.1994L11.0615 15.1994C10.6938 15.1994 10.3968 15.4964 10.3968 15.8641C10.3968 16.2318 10.6938 16.5288 11.0615 16.5288L21.3287 16.5288L18.6935 19.1639C18.4342 19.4232 18.4342 19.8474 18.6935 20.1067C18.9528 20.366 19.3771 20.366 19.6363 20.1067L23.4076 16.3355C23.6668 16.0762 23.6668 15.6519 23.4076 15.3927L19.6363 11.6214C19.3771 11.3622 18.9528 11.3622 18.6935 11.6214Z" fill="#252525"/>
</svg>
