<svg width="64" height="65" viewBox="0 0 64 65" fill="none" xmlns="http://www.w3.org/2000/svg">
<g clip-path="url(#clip0_149_27)">
<path d="M32.0133 64.5266C49.6938 64.5266 64.0266 50.1938 64.0266 32.5133C64.0266 14.8329 49.6938 0.5 32.0133 0.5C14.3329 0.5 0 14.8329 0 32.5133C0 50.1938 14.3329 64.5266 32.0133 64.5266Z" fill="url(#paint0_linear_149_27)"/>
<path fill-rule="evenodd" clip-rule="evenodd" d="M14.4739 32.1666C23.8033 28.115 30.0141 25.4228 33.1328 24.1166C42.0091 20.4115 43.8749 19.7718 45.0744 19.7451C45.341 19.7451 45.9274 19.7984 46.3273 20.1183C46.6471 20.3849 46.7271 20.7314 46.7804 20.9979C46.8337 21.2645 46.887 21.8243 46.8337 22.2507C46.3539 27.3153 44.2748 39.6035 43.2086 45.2545C42.7554 47.6535 41.8758 48.4532 41.0228 48.5331C39.1569 48.6931 37.7442 47.307 35.9582 46.1341C33.1327 44.2949 31.5601 43.1487 28.8146 41.3361C25.6425 39.257 27.695 38.1108 29.5076 36.2449C29.9874 35.7651 38.1707 28.3016 38.3306 27.6352C38.3572 27.5552 38.3572 27.2353 38.1707 27.0754C37.9841 26.9155 37.7175 26.9688 37.5043 27.0221C37.2111 27.0754 32.7329 30.0608 24.0166 35.9517C22.7371 36.8313 21.5909 37.2578 20.5513 37.2312C19.4051 37.2045 17.2194 36.5914 15.5667 36.0583C13.5676 35.4186 11.9682 35.0721 12.1015 33.9525C12.1815 33.3661 12.9811 32.7797 14.4739 32.1666Z" fill="white"/>
</g>
<defs>
<linearGradient id="paint0_linear_149_27" x1="31.9867" y1="0.5" x2="31.9867" y2="64.0202" gradientUnits="userSpaceOnUse">
<stop stop-color="#2AABEE"/>
<stop offset="1" stop-color="#229ED9"/>
</linearGradient>
<clipPath id="clip0_149_27">
<rect width="64" height="64" fill="white" transform="translate(0 0.5)"/>
</clipPath>
</defs>
</svg>
